<?xml version="1.0" encoding="UTF-8" standalone="no"?>
<svg
   xmlns:dc="http://purl.org/dc/elements/1.1/"
   xmlns:cc="http://creativecommons.org/ns#"
   xmlns:rdf="http://www.w3.org/1999/02/22-rdf-syntax-ns#"
   xmlns:svg="http://www.w3.org/2000/svg"
   xmlns="http://www.w3.org/2000/svg"
   xmlns:sodipodi="http://sodipodi.sourceforge.net/DTD/sodipodi-0.dtd"
   xmlns:inkscape="http://www.inkscape.org/namespaces/inkscape"
   height="29.645"
   viewBox="0 0 20.3805 22.23375"
   width="27.174"
   version="1.1"
   id="svg10"
   sodipodi:docname="filter-search-filter.svg"
   inkscape:version="0.92.3 (2405546, 2018-03-11)">
  <metadata
     id="metadata16">
    <rdf:RDF>
      <cc:Work
         rdf:about="">
        <dc:format>image/svg+xml</dc:format>
        <dc:type
           rdf:resource="http://purl.org/dc/dcmitype/StillImage" />
        <dc:title></dc:title>
      </cc:Work>
    </rdf:RDF>
  </metadata>
  <defs
     id="defs14" />
  <sodipodi:namedview
     pagecolor="#ffffff"
     bordercolor="#666666"
     borderopacity="1"
     objecttolerance="10"
     gridtolerance="10"
     guidetolerance="10"
     inkscape:pageopacity="0"
     inkscape:pageshadow="2"
     inkscape:window-width="1920"
     inkscape:window-height="1001"
     id="namedview12"
     showgrid="false"
     units="px"
     inkscape:zoom="11.0625"
     inkscape:cx="39.641072"
     inkscape:cy="32.212567"
     inkscape:window-x="2391"
     inkscape:window-y="-9"
     inkscape:window-maximized="1"
     inkscape:current-layer="svg10" />
  <path
     d="m 8.2050199,22.233616 c -0.112245,0 -0.225459,-0.02323 -0.331308,-0.07312 -0.282649,-0.129116 -0.462745,-0.410792 -0.462745,-0.720974 v -8.386211 c 0,-0.348367 -0.141712,-0.690336 -0.387527,-0.93596 L 0.85324428,5.9512231 C 0.30268008,5.4018616 -1.3011873e-4,4.6702321 -1.3011873e-4,3.8920753 V 1.8528562 C -1.3011873e-4,0.83120848 0.83095028,1.3467953e-4 1.8525957,1.3467953e-4 H 18.52771 c 1.021839,0 1.85292,0.83107380047 1.85292,1.85272152047 v 2.0169226 c 0,0.7855226 -0.324135,1.5501134 -0.889432,2.0952452 l -6.380923,6.156629 c -0.258416,0.248725 -0.405556,0.596125 -0.405556,0.953792 v 4.213953 c 0,0.851048 -0.370467,1.656924 -1.016411,2.210588 l -2.9654861,2.541899 c -0.14714,0.126016 -0.331308,0.191731 -0.517802,0.191731 z M 1.8525957,1.5882346 c -0.145977,0 -0.2646197,0.1186409 -0.2646197,0.2646216 v 2.0392191 c 0,0.3536 0.1376411,0.6860693 0.3884967,0.9369261 l 6.1692262,6.1649626 c 0.542228,0.541064 0.853375,1.291692 0.853375,2.059383 v 6.660467 l 1.6547941,-1.418666 c 0.293311,-0.252023 0.462745,-0.617254 0.462745,-1.004783 v -4.213754 c 0,-0.785524 0.323941,-1.549916 0.889432,-2.095246 L 18.386967,4.8247355 C 18.644221,4.5769878 18.791361,4.2297776 18.791361,3.8719117 V 1.8528562 c 0,-0.1459807 -0.118449,-0.2646216 -0.26462,-0.2646216 z m 0,0"
     id="path2"
     style="fill:#f98248;fill-opacity:1;stroke-width:0.04962832"
     inkscape:connector-curvature="0" />
</svg>
