<?xml version="1.0" encoding="UTF-8" standalone="no"?>
<!-- Created with Inkscape (http://www.inkscape.org/) -->

<svg
   xmlns:dc="http://purl.org/dc/elements/1.1/"
   xmlns:cc="http://creativecommons.org/ns#"
   xmlns:rdf="http://www.w3.org/1999/02/22-rdf-syntax-ns#"
   xmlns:svg="http://www.w3.org/2000/svg"
   xmlns="http://www.w3.org/2000/svg"
   xmlns:xlink="http://www.w3.org/1999/xlink"
   xmlns:sodipodi="http://sodipodi.sourceforge.net/DTD/sodipodi-0.dtd"
   xmlns:inkscape="http://www.inkscape.org/namespaces/inkscape"
   width="16.228001mm"
   height="18.319mm"
   viewBox="0 0 16.228001 18.319"
   version="1.1"
   id="svg840"
   inkscape:version="0.92.3 (2405546, 2018-03-11)"
   sodipodi:docname="fundingmonitor.svg">
  <defs
     id="defs834">
    <linearGradient
       inkscape:collect="always"
       id="linearGradient823">
      <stop
         style="stop-color:#fe6d56;stop-opacity:1;"
         offset="0"
         id="stop819" />
      <stop
         style="stop-color:#f2a233;stop-opacity:1"
         offset="1"
         id="stop821" />
    </linearGradient>
    <linearGradient
       inkscape:collect="always"
       xlink:href="#linearGradient823"
       id="linearGradient825"
       x1="-78.739342"
       y1="303.00113"
       x2="-63.880836"
       y2="292.77805"
       gradientUnits="userSpaceOnUse" />
  </defs>
  <sodipodi:namedview
     id="base"
     pagecolor="#ffffff"
     bordercolor="#666666"
     borderopacity="1.0"
     inkscape:pageopacity="0.0"
     inkscape:pageshadow="2"
     inkscape:zoom="7.9195959"
     inkscape:cx="-18.277584"
     inkscape:cy="41.171679"
     inkscape:document-units="mm"
     inkscape:current-layer="g1398"
     showgrid="false"
     inkscape:window-width="1920"
     inkscape:window-height="1001"
     inkscape:window-x="2391"
     inkscape:window-y="-9"
     inkscape:window-maximized="1" />
  <metadata
     id="metadata837">
    <rdf:RDF>
      <cc:Work
         rdf:about="">
        <dc:format>image/svg+xml</dc:format>
        <dc:type
           rdf:resource="http://purl.org/dc/dcmitype/StillImage" />
        <dc:title />
      </cc:Work>
    </rdf:RDF>
  </metadata>
  <g
     inkscape:label="Layer 1"
     inkscape:groupmode="layer"
     id="layer1"
     transform="translate(0,-278.681)">
    <g
       id="g1398"
       transform="translate(79.173524,-9.9154534)">
      <path
         style="color:#000000;font-style:normal;font-variant:normal;font-weight:normal;font-stretch:normal;font-size:medium;line-height:normal;font-family:sans-serif;font-variant-ligatures:normal;font-variant-position:normal;font-variant-caps:normal;font-variant-numeric:normal;font-variant-alternates:normal;font-feature-settings:normal;text-indent:0;text-align:start;text-decoration:none;text-decoration-line:none;text-decoration-style:solid;text-decoration-color:#000000;letter-spacing:normal;word-spacing:normal;text-transform:none;writing-mode:lr-tb;direction:ltr;text-orientation:mixed;dominant-baseline:auto;baseline-shift:baseline;text-anchor:start;white-space:normal;shape-padding:0;clip-rule:nonzero;display:inline;overflow:visible;visibility:visible;opacity:1;isolation:auto;mix-blend-mode:normal;color-interpolation:sRGB;color-interpolation-filters:linearRGB;solid-color:#000000;solid-opacity:1;vector-effect:none;fill:url(#linearGradient825);fill-opacity:1;fill-rule:nonzero;stroke:none;stroke-width:2.71086645;stroke-linecap:butt;stroke-linejoin:round;stroke-miterlimit:4;stroke-dasharray:none;stroke-dashoffset:0;stroke-opacity:1;color-rendering:auto;image-rendering:auto;shape-rendering:auto;text-rendering:auto;enable-background:accumulate"
         d="m -71.027514,288.59661 c -0.24869,-0.006 -0.49419,0.0568 -0.70963,0.1812 l -6.75878,3.90217 c -0.41935,0.24213 -0.67769,0.68957 -0.67773,1.17381 v 7.80433 c 4e-5,0.48424 0.25838,0.93168 0.67773,1.17382 l 6.75878,3.90216 c 0.41939,0.24212 0.93608,0.24212 1.35547,0 l 6.75855,-3.90216 c 0.41935,-0.24214 0.67769,-0.68958 0.67773,-1.17382 v -7.80433 c -4e-5,-0.48424 -0.25838,-0.93168 -0.67773,-1.17381 l -6.75855,-3.90217 c -0.19671,-0.11355 -0.41878,-0.17586 -0.64584,-0.1812 z"
         id="path856"
         inkscape:connector-curvature="0"
         sodipodi:nodetypes="cccccccccccccc" />
      <g
         id="g865"
         transform="matrix(0.08201165,0.08178353,-0.08178353,0.08201165,-96.940109,248.20401)"
         style="fill:#ffffff;fill-opacity:1">
        <path
           id="path863"
           transform="scale(0.26458333)"
           d="m 1739.9883,368.44141 c 0,0 -43.6493,39.36059 -61.1289,98.80859 -17.4797,59.448 1.2793,98.81445 1.2793,98.81445 l -35.1055,22.58985 v 26.76953 h 69.7012 c 0,0 -6.1363,5.07155 -9.0899,13.08203 -2.9535,8.01044 -2.5273,11.66602 -2.5273,11.66602 h 36.8711 36.8711 c 0,0 0.4242,-3.65558 -2.5293,-11.66602 -2.9536,-8.01048 -9.0879,-13.08203 -9.0879,-13.08203 h 69.6992 V 588.6543 l -35.1035,-22.58985 c 0,0 18.757,-39.36645 1.2773,-98.81445 -17.4796,-59.448 -61.1269,-98.80859 -61.1269,-98.80859 z m 0,61.80273 a 25.714287,25.714287 0 0 1 25.7129,25.71289 25.714287,25.714287 0 0 1 -25.7129,25.71485 25.714287,25.714287 0 0 1 -25.7149,-25.71485 25.714287,25.714287 0 0 1 25.7149,-25.71289 z m -0.9688,219.40625 c -2.8076,0.0171 -14.3815,0.88891 -19.8925,13.75391 -6.2984,14.70285 20.5156,65.54492 20.5156,65.54492 0,0 26.8159,-50.84207 20.5176,-65.54492 -6.2984,-14.70286 -20.5176,-13.74219 -20.5176,-13.74219 0,0 -0.222,-0.0141 -0.6231,-0.0117 z"
           style="fill:#ffffff;fill-opacity:1;stroke:none;stroke-width:0.99999994px;stroke-linecap:butt;stroke-linejoin:miter;stroke-opacity:1"
           inkscape:connector-curvature="0" />
      </g>
    </g>
  </g>
</svg>
